<?xml version="1.0" encoding="utf-8"?>
<!-- Generator: Adobe Illustrator 23.0.3, SVG Export Plug-In . SVG Version: 6.00 Build 0)  -->
<svg version="1.1" id="Layer_1" xmlns="http://www.w3.org/2000/svg" xmlns:xlink="http://www.w3.org/1999/xlink" x="0px" y="0px"
	 viewBox="0 0 1200 1200" enable-background="new 0 0 1200 1200" xml:space="preserve">
<g>
	<path fill="#E0BC58" d="M644.925,694.846c-0.672,6.818-16.328,181.263,130.948,263.971v147.199h-173.71h-4.325h-173.71V958.817
		c150.224-84.364,130.926-264.201,130.926-264.201c-20.722-4.209-28.08-10.448-28.08-10.448S475.83,648.651,387.75,472.491
		c-75.136-150.272-85.144-321.221-86.463-368.219c-0.192-6.87,5.323-12.515,12.195-12.515h284.356h5.471h284.356
		c6.873,0,12.388,5.645,12.195,12.515c-1.319,46.999-11.327,217.947-86.463,368.219c-88.08,176.161-139.223,211.677-139.223,211.677
		S666.535,690.639,644.925,694.846z"/>
	<path fill="#3B3D3C" d="M775.873,1106.016h44.5c1.999,0,3.619,1.62,3.619,3.619v36.746c0,1.999-1.62,3.619-3.619,3.619H599.427
		h1.146H379.627c-1.999,0-3.619-1.62-3.619-3.619v-36.746c0-1.999,1.62-3.619,3.619-3.619h44.5H775.873z"/>
	<path fill="#D9B655" d="M899.858,104.271c-0.319,11.396-1.162,30.127-3.307,54.035c-6.679,74.402-26.1,199.358-82.503,312.84
		c-0.222,0.447-0.428,0.898-0.652,1.345c-20.266,40.531-38.549,73.538-54.73,100.459c-54.15,90.086-84.493,111.218-84.493,111.218
		s-7.684,6.427-29.243,10.623c-0.604,6.07-16.667,181.131,130.943,264.027v147.198H609.058V958.818v-260.55
		c-0.246,0.005-0.464,0.02-0.712,0.024c0.24-0.415,0.472-0.835,0.712-1.25v-2.425h1.379c106-184.953,182.282-391.872,173.195-602.86
		h104.032c4.16,0,7.798,2.087,9.997,5.242C899.098,99.057,899.935,101.559,899.858,104.271z"/>
	<path fill="#D1AF52" d="M1066.224,184.395c-15.422,97.449-83.925,174.211-148.907,236.45
		c-15.193,14.551-30.873,28.967-46.037,42.909c-17.605,16.182-35.802,32.917-53.154,49.786
		c-7.013,6.819-17.508,14.068-21.492,23.183c-4.193,9.596-5.524,21.73-4.65,32.12c0.775,9.219,3.331,19.973,11.038,25.931
		c7.318,5.655,8.668,16.17,3.014,23.489c-3.3,4.272-8.255,6.509-13.264,6.509c-3.577,0-7.179-1.141-10.225-3.496
		c-15.513-11.987-22.193-30.38-23.882-48.325c16.182-26.921,34.464-59.928,54.73-100.459c0.224-0.446,0.43-0.898,0.652-1.345
		c11.547-10.862,23.176-21.579,34.565-32.05c15.037-13.827,30.591-28.125,45.538-42.439
		c64.018-61.315,125.161-130.104,138.988-217.496c2.628-16.603,8.374-72.207-28.055-90.683
		c-26.134-13.251-59.945,1.991-77.522,24.396c-4.502,5.737-23.597,33.691-31.011,45.43c2.145-23.908,2.988-42.639,3.307-54.035
		c0.077-2.712-0.76-5.214-2.197-7.273c1.488-2.067,2.727-3.749,3.547-4.794c25.565-32.589,75.951-55.44,119.028-33.595
		C1058.431,77.98,1075.623,125.006,1066.224,184.395z M351.424,439.746c-15.05-13.84-30.618-28.149-45.574-42.475
		c-64.018-61.315-125.162-130.104-138.993-217.496c-2.629-16.603-8.365-72.211,28.055-90.683
		c26.146-13.251,59.946,1.987,77.526,24.396c9.132,11.641,23.544,32.185,32.723,50.891c-2.566-26.817-3.529-47.767-3.875-60.108
		c-0.063-2.251,0.534-4.342,1.544-6.175c-1.74-2.318-3.154-4.151-4.038-5.279c-25.573-32.589-75.964-55.452-119.032-33.595
		c-38.191,19.371-55.379,66.393-45.988,125.787c15.426,97.449,83.933,174.211,148.912,236.45
		c15.201,14.563,30.897,28.991,46.073,42.946c17.593,16.17,35.783,32.892,53.118,49.749c5.212,5.067,11.044,9.634,15.74,15.24
		c5.861,6.996,7.544,14.017,9.2,22.724c1.093,5.745,1.697,11.413,1.204,17.301c-0.771,9.231-3.326,20.005-11.045,25.97
		c-7.318,5.654-8.668,16.17-3.013,23.488c3.299,4.272,8.255,6.509,13.263,6.509c3.573,0,7.179-1.141,10.225-3.496
		c16.168-12.49,22.709-31.936,24.037-50.587c-15.684-26.198-33.334-58.134-52.813-96.987
		C376.25,462.587,363.696,451.027,351.424,439.746z"/>
</g>
</svg>
